<?xml version="1.0" encoding="UTF-8" standalone="no"?>
<svg
   xmlns:dc="http://purl.org/dc/elements/1.1/"
   xmlns:cc="http://creativecommons.org/ns#"
   xmlns:rdf="http://www.w3.org/1999/02/22-rdf-syntax-ns#"
   xmlns:svg="http://www.w3.org/2000/svg"
   xmlns="http://www.w3.org/2000/svg"
   xmlns:sodipodi="http://sodipodi.sourceforge.net/DTD/sodipodi-0.dtd"
   xmlns:inkscape="http://www.inkscape.org/namespaces/inkscape"
   xml:space="preserve"
   height="101.34"
   viewBox="0 0 370.76172 101.34011"
   width="370.76001"
   version="1.1"
   id="svg214"
   sodipodi:docname="logo.svg"
   inkscape:version="1.0.2 (394de47547, 2021-03-26)"><metadata
     id="metadata220"><rdf:RDF><cc:Work
         rdf:about=""><dc:format>image/svg+xml</dc:format><dc:type
           rdf:resource="http://purl.org/dc/dcmitype/StillImage" /><dc:title></dc:title></cc:Work></rdf:RDF></metadata><defs
     id="defs218" /><sodipodi:namedview
     pagecolor="#ffffff"
     bordercolor="#666666"
     borderopacity="1"
     objecttolerance="10"
     gridtolerance="10"
     guidetolerance="10"
     inkscape:pageopacity="0"
     inkscape:pageshadow="2"
     inkscape:window-width="1318"
     inkscape:window-height="704"
     id="namedview216"
     showgrid="false"
     inkscape:zoom="0.86537193"
     inkscape:cx="289.62477"
     inkscape:cy="138.421"
     inkscape:window-x="48"
     inkscape:window-y="27"
     inkscape:window-maximized="1"
     inkscape:current-layer="svg214" /><g
     id="g273"
     transform="matrix(1.5568458,0,0,1.5568458,24.060479,75.669)"><rect
       id="fullLogo-2"
       data-name="fullLogo"
       x="22.225561"
       y="-33.414753"
       width="8.8721409"
       height="34.470661"
       style="fill:#ee2e24;stroke-width:1" /><polygon
       id="fullLogo-3"
       data-name="fullLogo"
       points="112.876,48.485 112.876,14.014 121.878,14.014 121.878,40.632 133.813,40.632 133.813,48.485 "
       style="fill:#ee2e24"
       transform="matrix(1.0000046,0,0,1.0000046,-13.877404,-47.429018)" /><polygon
       id="fullLogo-4"
       data-name="fullLogo"
       points="159.392,40.632 159.392,48.485 136.691,48.485 136.691,14.014 159.354,14.014 159.354,21.848 145.564,21.848 145.564,27.565 158.743,27.565 158.743,34.804 145.564,34.804 145.564,40.632 "
       style="fill:#ee2e24"
       transform="matrix(1.0000046,0,0,1.0000046,-13.877404,-47.429018)" /><path
       id="fullLogo-5"
       data-name="fullLogo"
       d="m 199.58708,-16.838877 12.23335,-16.575577 h -12.56605 l -11.32426,15.870073 V -33.414454 H 176.94087 V 1.055705 h 10.98925 v -15.870073 l 19.54699,25.207616 a 31.771546,31.771546 0 0 1 -16.85477,4.678022 c -17.74678,0 -31.26015,-13.4955626 -31.26015,-31.260144 0,-17.744282 13.51297,-31.240144 31.26015,-31.240144 17.74718,0 31.25794,13.495862 31.25794,31.240144 a 31.593345,31.593345 0 0 1 -6.42153,19.3613888 z"
       style="fill:#ee2e24;stroke-width:1" /><path
       id="fullLogo-6"
       data-name="fullLogo"
       d="m 54.987113,-12.085755 a 10.381248,10.381248 0 0 0 6.385229,-9.931546 c 0,-7.572835 -5.401125,-11.397453 -15.090069,-11.397453 H 35.200522 V 1.055405 h 8.872341 v -14.441166 l 9.224842,14.441666 h 10.470348 z m -8.427439,-3.620017 H 44.072863 V -26.10002 h 2.542011 c 3.601817,0 5.957828,1.578207 5.957828,5.086024 2e-4,3.581816 -2.504812,5.308324 -6.013028,5.308324 z"
       style="fill:#ee2e24;stroke-width:1" /><path
       id="fullLogo-7"
       data-name="fullLogo"
       d="m 4.4238802,-25.877519 c -5.5307255,0 -9.355543,4.39852 -9.355543,9.688645 0,5.309124 3.8248175,9.6905443 9.355543,9.6905443 a 9.7935451,9.7935451 0 0 0 8.3900388,-4.8078223 l 6.848831,4.4739207 A 17.709181,17.709181 0 0 1 4.2370793,1.6678078 c -10.4296479,0 -18.1144833,-7.7946358 -18.1144833,-17.8566818 0,-10.042046 7.6848354,-17.838882 18.1146833,-17.838882 a 17.585281,17.585281 0 0 1 15.5187717,8.447139 l -7.017933,4.603621 C 10.86551,-23.94701 8.1905975,-25.877019 4.4238802,-25.877019 Z"
       style="fill:#ee2e24;stroke-width:1" /><path
       id="fullLogo-8"
       data-name="fullLogo"
       d="m 81.440034,-25.877519 c -5.532925,0 -9.356843,4.39852 -9.356843,9.688645 0,5.309124 3.823918,9.6905443 9.356843,9.6905443 a 9.791645,9.791645 0 0 0 8.388939,-4.8078223 l 6.850032,4.4739207 A 17.713281,17.713281 0 0 1 81.253434,1.6678078 c -10.432348,0 -18.117084,-7.7946358 -18.117084,-17.8566818 0,-10.042046 7.684736,-17.838882 18.117084,-17.838882 a 17.582981,17.582981 0 0 1 15.516571,8.447139 l -7.015832,4.603621 c -1.875009,-2.970214 -4.547521,-4.900523 -8.314139,-4.900523 z"
       style="fill:#ee2e24;stroke-width:1" /></g></svg>
